<svg id="Layer_1" xmlns="http://www.w3.org/2000/svg" xmlns:xlink="http://www.w3.org/1999/xlink" viewBox="0 0 557 185"><style>.st0{fill:#003767}.st1{clip-path:url(#SVGID_2_)}.st1,.st2{fill:#717073}</style><path class="st0" d="M338.1 36.8c0 1.5-.5 2.4-1.5 2.5-7.7.9-13 2.3-15.9 4.3-2.9 2-4.4 5.8-4.5 11.4l-2 109c0 1.2-.7 1.8-2.2 1.8-.7 0-1.7-.5-3-1.5L213.7 56.6l-1.3 85.5c-.1.5-.1 1-.1 1.4 0 4.7 1.5 8 4.4 9.9 3 1.9 8.3 3.4 16 4.3 1 .1 1.5 1 1.5 2.5 0 1.7-.5 2.6-1.5 2.6-3.2 0-7.6-.2-13.2-.6-5.2-.4-9.3-.6-12.1-.6-3.1 0-7.2.2-12.5.6-5.1.4-9 .6-11.7.6-1 0-1.5-.9-1.5-2.6 0-1.5.6-2.4 1.7-2.5 7.6-.9 12.9-2.4 15.7-4.3 2.8-1.9 4.3-5.7 4.5-11.3l3.2-87.1v-.8c0-5-1.4-8.5-4.3-10.5s-8.3-3.5-16.2-4.4c-.9 0-1.3-.8-1.3-2.5s.5-2.5 1.5-2.5c2.2 0 5.2.2 9.1.6 3.5.4 6 .6 7.8.6 2.2 0 4.7-.2 7.8-.6 3.1-.4 5.7-.6 8-.6l89.1 99.6V55c0-5.2-1.5-8.9-4.5-11.1-3-2.1-8.5-3.7-16.6-4.6-1-.1-1.5-1-1.5-2.5 0-1.7.5-2.6 1.5-2.6 3.3 0 7.8.2 13.3.6 5.2.4 9.2.6 12 .6 3.1 0 7.2-.2 12.5-.6 5.1-.4 9-.6 11.7-.6.9 0 1.4.9 1.4 2.6zM482.9 99.4c0 19-6.4 34.3-19.1 46-12.7 11.7-29.9 17.5-51.5 17.5-2.7 0-8.2-.1-16.5-.4-8.5-.2-14.2-.4-17-.4-11.5 0-22.6.2-33.5.7-1 0-1.5-.9-1.5-2.6 0-1.5.5-2.4 1.5-2.5 5.1-.6 9-1.4 11.7-2.5 2.7-1 4.6-2.4 5.7-4.1 1.1-1.7 1.6-4.8 1.6-9.1V55.4c0-4.3-.5-7.3-1.5-9-1-1.8-2.9-3.2-5.6-4.2-2.7-1-6.7-1.9-11.9-2.5-1 0-1.5-.8-1.5-2.5s.5-2.5 1.5-2.5c7.2.5 18.4.7 33.5.7 2.8 0 8.5-.1 17-.3 8.3-.2 13.7-.3 16.5-.3 21.1 0 38.1 6 51.1 18.1 13 12 19.5 27.5 19.5 46.5zm-20.4 0c0-16.8-4.8-30.8-14.4-41.9-9.6-11.1-21.6-16.7-36-16.7h-.6l-17.4.4c-7.3.2-10.9 3.8-10.9 10.7v93.8c0 7 3.6 10.6 10.9 10.6l17.4.6c14.4 0 26.4-5.5 36.3-16.4 9.8-11.1 14.7-24.7 14.7-41.1zM548.3 160.3c0 1.7-.5 2.6-1.5 2.6-4.1 0-9-.2-14.7-.6-5.4-.4-10-.6-13.8-.6-3.8 0-8.4.2-13.8.6-5.7.4-10.7.6-14.9.6-1 0-1.5-.9-1.5-2.6 0-1.5.5-2.4 1.5-2.5 7.5-.9 12.5-2.3 15.2-4.2 2.7-1.9 4-5.7 4-11.5V55c0-4.3-.5-7.4-1.6-9.1-1.1-1.8-3-3.1-5.7-4.2-2.7-1-6.7-1.8-11.9-2.5-1 0-1.5-.8-1.5-2.5s.5-2.5 1.5-2.5c4.2 0 9.2.2 14.9.6 5.4.4 10 .6 13.8.6 3.8 0 8.4-.2 13.8-.6 5.7-.4 10.6-.6 14.7-.6 1 0 1.5.8 1.5 2.5s-.5 2.5-1.5 2.5c-5.2.6-9.1 1.4-11.8 2.5-2.7 1-4.6 2.4-5.6 4.1-1 1.7-1.6 4.8-1.6 9.2v87.1c0 4.3.5 7.3 1.6 9 1 1.8 2.9 3.1 5.6 4.2 2.7 1 6.6 1.8 11.8 2.5.9.1 1.5.9 1.5 2.5z"/><g><defs><path id="SVGID_1_" d="M180.3 92.2c0 48.4-39.2 87.6-87.6 87.6-48.4 0-87.6-39.2-87.6-87.6 0-48.4 39.2-87.6 87.6-87.6 48.4 0 87.6 39.2 87.6 87.6z"/></defs><clipPath id="SVGID_2_"><use xlink:href="#SVGID_1_" overflow="visible"/></clipPath><path class="st1" d="M42.9 164.7s.3.1 0 0zM54.7 169.3l.1.2.5.3.5.2.5.3.5.2.4.3.7.2.6.2.3-.1-.1-.2-.2-.2-.4-.4-.5-.4-.6-.3-.5-.5-.7-.5h-.4l.4.4.5.4.5.3v.2l-.3-.1-.5-.1-.6-.1z"/><path class="st1" d="M54.4 169l.5.2.4.1-.1-.2-.2-.2-.5-.2h-.4l.3.1zM56.5 166.6l.5.2.1-.1h.4l-.4-.3v.3l-.4-.3zM60 166.6l.3.3h.6l-.7-.3zM38 114.3l-.2-.5-.3-.3-.1-.3-.3-.3-.2-.2-.3-.2-.3-.1-.1.2h-.3l-.3.1h-.4l-.2-.3-.2-.1-.1-.3-.2-.3-.3-.3-.1-.4-.1-.4-.1-.3.2-.3v-.3l.1-.4v-.4l.1-.5.1-.2.1-.6-.1-.1-.2-.3-.2-.3-.3-.2-.1-.1-.3-.1-.3-.2-.3.1-.3-.1-.3-.2h-.4l-.2-.2-.2-.3.3-.1.2-.5v-.3l.2-.7.1.4.2-.3.1-.5v-.3l.2-.4.1-.3.3-.3v-.3l-.1-.2-.3-.1-.2-.2H31.5l-.3-.1-.1.1-.2.4v.3l-.2.2v.4h-.2l-.2.1v.3H30v-.2l-.3-.2-.3.1-.3-.1h-.4l-.2-.1-.1-.3-.2-.3-.3-.2-.1-.4-.1-.4v-.4l-.2-.3-.1-.4v-.4l.1-.1-.2-.5v-.4l.1-.3.1-.3v-.5l.1-.3.2-.4.1-.3.2-.3v-.4l.1-.4V95l.1-.4.2-.2.3-.2.3-.1h.3l.2-.1.2-.1v-.4l.2-.1-.1.4.3-.1h.2l.3.1.2.2.3.2.3-.1.2.4v.3l.2.1.3.1.2-.1.2.2.1.2.1-.1-.2-.4v-.1l.2-.1.1-.2h-.3l-.2-.1-.1-.1.1-.3.3.3.3-.1.2.1.3.2.1-.2.1.3.2.2h.6l.2.3.2.3v.3l.3.1.3-.1h.3l.2.3.1.6.1.1.1.5-.1.3-.1.3h.2l-.1.4v.2l.1.4.1.4.1.4.1.4.1.3.2.1.2-.1.2-.4.1-.4.1-.5v-.5l-.1-.6v-.2l-.1-.5v-.5l-.1-.4v-.5l.1-.4.2-.3.2-.4.4-.3.3-.1.3-.2.3-.2.2-.2.3-.2.3.1.3-.3.3-.2.3.1.2-.2-.3-.1.4-.2.2.1.1-.2.1-.3-.3-.1-.3-.1h.3l.2-.1.2.2v.3-.7l-.1-.3-.1-.4v-.3l.2-.4-.3-.4.3.2v-.8l.2-.3h.3l-.2.2-.1.3-.2.4.3.2-.1.2.1.1-.1.3-.2.4.2-.1.1-.4.3-.3.2-.2-.1-.6V89l.2.2v.4l.4-.2.3-.4.2-.4-.1-.3.2-.2.4-.1.3-.1.3.1.3.1.3-.1.1-.3.2.3.2-.1v.2l.4-.1.1-.3-.1.3-.3-.2v-.4l-.1-.2.2-.2v-.2l.2-.3.3-.3v-.1l.3-.1.4-.1.3-.3.1.2.4-.1h.3l.4-.2.1-.3.4.1h.4l.6-.3-.2.3.5.1-.5.2-.3.1-.4.2-.3.4v.4l.3.3.4-.2.3-.3.3-.2h.3l.5-.1.6-.1h.6l.1-.3.4-.1.5-.3-.4-.4.2-.5-.1-.2-.3.4-.4.3-.1.4-.3-.1-.4.1-.4-.2-.3-.5-.3-.2-.1-.6.1-.6.1-.3h-.5l-.2-.6.6.1h.3l.4-.2.1-.3-.2-.4-.3-.2-.5-.1h-.4l-.5.1-.4.1-.4.2-.4.2-.4.4-.3.2-.3.3-.4.1.3-.3.3-.3.3-.3.2-.2.4-.4.4-.2.5-.4.4.2.2-.5.4-.2.4-.1.4.1.4.1h.4l.3.2.4.1.4.1.2.2.5.1.5.1.4-.3.3-.3.4-.3.5-.1h.7l.4-.3.4-.1V79l.2-.4-.3-.7-.4-.1.1-.4-.6-.3.6-.2-.2-.4-.6-.2-.1-.4-.6-.3.1-.5-.4-.3-.2-.5.2-.5.4-.4-.2-.4.1-.3-.2-.5-.1-.6v-.7l-.2-.7v-.6l-.1-.5-.4.4-.3.2.1.4-.4.5-.5.2-.3.3-.7.1-.1-.7-.3-.2-.1-.6.1-.4.3-.6v-.5l.3-.5-.3-.2-.4-.1-.3-.4.3-.4-.3-.4-.2-.5-.2-.4H50l-.3-.1-.4-.4-.4-.3-.5.3-.2.5.2.4-.3.4-.4.5.1.3-.1.7-.2.5-.4.4-.4-.1-.2.4.1.5.3.3-.1.7-.1.5-.1.7-.3.8-.4.3-.5.4-.6.2-.4.1v1.1l-.2.6-.2.5.1.6-.5.5-.6.2v.3l-.3-.5v-.4l-.1-.5-.1-.5-.2-.6.3-.5.1-.4v-.5l.5-.8-.3-.4-.5-.2-.5-.2-.3-.6-.4-.3-.2-.3-.1-.6-.3-.6-.4-.3-.3-.6h-.4l-.4.1.2-.4.1-.5.2-.4.1-.8-.3-.2-.3-.1v-.5l.3-.6.4-.6.3-.5.3-.4.5-.5.5-.4.4-.1.3-.6h1l.2-.6.7-.6.7.2.6-.4.6-.6.3-.6.9-.7-.1-.5h.6v.4l.5.5.7-.4.8-.4.5-.7-.4-.5.4-.7.6-.2.5-.8-.6-.4.2-.5-.4-.5-.5-.2-.4.8-.4.7-.4.9-.7.2-.3.6-.4.1V56l.4-.7.3-.6.1-.8-1 .8.1-.9.1-.6-.2-.6.7-.3.2-.9v-.5l.1-.8.2-.8.5-.4.2-.5.4-.1.5.1.6-.5.6-.5.4-.3-.1-.4-.6-.5-.9-.1-.5.5-.3.7-.4.8-.4.6-.5.7-.5.2-.7.7-.6.7-.1 1 .3.8-.6.5-.2.7-.8.5h-.1l-.5.6-.2-.6.4-.8.8-.2.2-1-.1-.9-.7.6-.6.2.2.9-.5.3-.5.7-.6-.1-.4-.5-.3-.6-.3-.7.1-1h-1.2l-.5.3.2.5-.4.5-.3-.5-.1-.5h-.6l-.6-.1-.2-.4-.4-.3.4-.3h.4l.2-.7-.2-.6-.4-.3-.1-.5-.2-.6v-.7l-.4-.4-.6.5-.2-.2.6-.8-.8.6-.1-.4.4-.7.2-.9-.7.6h-.4l.3-.6-.6.1-.6.1-.5.2v-.5l-.3-.1-.5.3-.4.4v-.5l.1-.6v-.6l-.2-.4.1-.4v-.6l-.2-.2-.2-.1v-.6l-.2-.2.1-.7-.2-.3-.2-.3.3-.6-.2-.4.3-.5v-.5l-.7.2-.2-.2-.6.1-.2-.1-.5.2-.6.5-.4.3-.3-.2-.2-.2-.5.5-.3.6-.2.7-.5.7-.2.6-.4.6-.3.2-.1-.4.3-.4v-.2h-.7l-.4.2-.1.3v.3l-.4.3-.2.4-.1.5.2.3-.1.4.3-.1h.3l-.4.4-.4.6-.4.4-.2-.2-.4.2.1-.4h-.3l-.2.3-.5.4-.6.5-.2.6-.4.6-.3.6-.2.6.1.2.3-.2-.3.7-.3.3-.3.5h.2l.2.3-.3.7.3-.3v.3l.1.1-.4.5-.4.6-.3.1-.3.2-.4.1-.4.3-.1-.1h-.2l-.4.2h-.2l-.3.1-.2.2h1.4l.3.1.3-.3h.2l.4-.1.3-.3.4-.2h.4l.3-.2.3-.3v-.4l.2-.3h.3l.4-.3.4-.4.4-.2.4-.1.1.1-.3.3-.3-.1-.5.6-.4.4v.3l-.3.2.2.2.4-.2.3-.2.1.3.5-.4.4-.7v.4l.2.2-.1.4-.1.6v.6l.2.2.3.2v.5l.1.3.3-.1-.3.6v.5l-.1.6v.9l-.3.6-.1.6-.2.6-.2.7.4-.7.2-.6.4-.5v-.6l.1.2.3-.4-.1.5-.3.3-.2.6-.3.4.3-.1.3-.3-.1.4-.1.5-.1-.4-.4.2-.2.6h.1l-.2.4-.1.4-.1.4v.4l-.1.5.4-.6.1-.7.2-.6v.3l.1.2-.2.3-.1.5-.1.4v.4h.3l-.3.4-.1.3-.3.2-.1.6v.4l-.1.7.1.4-.2.6-.1.4-.1.3.1.5.1.4.1.4.1.5v.5l.1.3h.3l-.2.4v.9l-.2.1v.4l-.3.4V71h-.2l.3-.3-.1-.3-.2-.2-.2-.5-.1.2v.3l-.1.5-.1.5-.2.4v.3l.2.3-.3-.2-.1.3-.2.4-.2.4-.1.4-.3.5-.2.4-.3.5-.1.5-.1.3-.1.5-.2.4-.2.4-.1.2.1.3-.1.4v.3l-.2.4.1.3.1.4-.2.2.2.2v-.2l.1.2-.1.1v.4l-.1-.3-.1.3v.4l.2.1-.2.3-.1.2.1.4v.5l.1.5-.1.4.2.4.2.3.2.2.1.1-.1.3.2.1.1.4v.5l-.1.4.1.5-.1.4.1.3-.1.2.1.3-.1.4.1.1-.1.5.2.3.1.4.1.4v.7l-.3.1-.2-.2.2.3v.4l.1.2.1.3.2.1.1.3.1.4.1.4-.1.4-.1.2.2.4.1.4.1.4.2.4.1.6.3-.2-.1-.4-.1-.6-.2-.1-.1-.4h.2l-.2-.4.1-.3-.1-.5V92l-.1-.5V91l-.1-.3v-.5l-.1-.4-.1-.5v-.4l-.1-.3-.1-.3.1-.4v-.4l.1-.3.1-.3.2.4h.1l.1.3.1.2v.9l-.1.3.1.4v.5l.1.5.2.5.2.2-.1.4.2.5v.3l.1.1.1.3-.1.3-.1.2.2.3.2.3.1.6.1.3.2.4.1.5.1.4.1.4.1.3v.6l.1.3v.2l-.2.2.1.2-.2.1.1.5.1.5.3.3.2.4.1.4.3.4.3.2h.1l.2.4.2.4.2.3.2.2.3.4.2.2.2.3.3.3.3.2.2.2.3.3.4-.1h.2l.3.1.2.2.2.2.2.3.1.2.2.4.2.4.2.3.2.3.3.3.3.1.2.3.1.2.2.1.3.3.2.1.4.1.1-.1.1.4-.2-.1.2.4.2.3.2.4.2.3.2.4v.3l-.1.2.1.4.2.1.1.2.2-.2.1.3.3.4.2.3-.1.3.3.2.2.2h.1l.3.2.3.2.1.3.3.1v.4h.6l-.2-.4-.1-.2.3-.1.2-.1.2-.2h.2l.2.3.1.4h.2l-.1.2.1.5.3.4.1.4z"/><path class="st1" d="M37.5 115.1v1.5l-.1.3.2.3-.2.3-.1.3-.4-.1-.2.3.1.3h-.3l.1.3-.3.1-.4.1v.4l-.3.2v.3l-.3.1.1.5v.4l.2.2.2.5.1-.4.2.1-.1.2-.1.3-.2.1-.3.1-.3.2v.3l.2.3.2.5-.2.1.2.3.3.3.2.3.2.3.1.4.3.4.3.4.1.4.1.4.1.4.3.5.2.4.2.4.1.3.2.3.2.3.2.6v.3l.3.4.2.3.2.3.5.4.3.2.3.3.4.4.3.1.3.4.3.2.3.4.2.2.3.3.1.4.1.4.1.5v.3l.1.3v1.1l-.1.2.1.4v.6l.1.4.1.3-.1.2.1.4-.1.4V140.6l-.1.3.1.3.2.5-.2.1v.3l.2.4.1.4v.2l.2.2-.1.5.1.3-.1.2.1.3-.1.3-.1.3-.1.3v.3l-.1.1.1.3H43v.3l.2.4.1.2.1.4.2.3-.2.3.1.4v.2l.2.3.1.3.3.1v-.2l.4.2-.1.2.2.2-.1.1.1.4-.1.2.2.3v.3l.1.1-.2.2.2.2-.1.3-.1-.2-.1-.2v-.2l-.1-.2.1-.1-.3-.3-.2.1v.3l.2.3v.1l-.1.3.2.2-.2-.1.1.2-.3.2.1.2.2-.1.4.3h.2V153.3l.2.4-.4-.5h-.2v.2l.1.3.1.4.2.2.1.3.3.1-.1.1.2.5.2-.4v.2l.2.3-.2-.1.1.3-.1.2h.4v-.2l.2.4.1.2-.5-.2.2.3.3.3.1-.1.3.3.3.1v.2l.3.2.4.3.2-.1.2-.2.2.1v.2h-.4l.2.2.5.3h.1l-.1-.4-.1-.3h.6l-.1-.1.3.1.4.1-.4-.4-.2-.3-.3-.3v-.4l.2-.1h.3l-.1-.3v-.4l.2-.1.3-.1.2-.2v-.3l-.1-.2-.5-.2-.4-.3-.3-.3-.1-.3v-.3l.2-.1.3-.1.4.1-.1-.2.2-.1-.1-.3-.1-.3.1-.2.3-.1-.5-.2.3-.1.3.2.3.1v-.2l-.3-.3h-.4l-.3-.2-.1-.4-.2-.4.1-.1.4.2.3.2.5.2.4-.1v-.2l-.2-.2.1-.3v-.2l-.2-.3v-.3l.2.2.5.1.4.1.3.1h.8l.3-.1.3-.1.1-.2.2-.2.1-.3-.1-.4-.3-.1-.2-.3.1-.3-.3-.3-.6-.3-.1-.3v-.2l.4.4.5.1.2.2.4.2h.4l.4.2h.4l.3-.1.2-.2v-.2l.3-.2.2-.2.1-.4.2-.1.3-.2.3-.1.2-.3.1-.3.1-.3.2-.3.2-.3.3-.2.1-.1.1-.3v-.3l-.1-.3v-.5l-.1-.3.3-.3.2-.2.4-.2.2-.2.4-.1.3-.1.3.1.3-.3.3.1-.2-.3.5.1.4.1h.7l.4.1-.1-.3.4-.1.3-.1v-.4l.1-.3.3-.3.1-.3.3-.3.1-.2v-.7l.2-.2v-.8l.1-.3v-.4l-.1-.3-.1-.4.1-.3.1-.4.3-.2.3-.2.3-.4.1-.3.3-.4.2-.1.3-.2.2-.2.3-.3.2-.2.1-.3.2-.4.1-.4-.1-.4-.1-.4-.2-.4-.2-.4-.4-.2h-.4l-.3-.1-.3-.3-.3-.2-.3-.3-.2-.2-.4-.3-.4-.3-.4-.3-.3-.1-.4.1-.3-.1-.4-.2h-.4l-.3-.3-.4-.1-.4.1h-.4l.1-.3-.1-.3-.2-.3h-.3l-.2-.2-.4-.2-.4-.2-.4-.3-.4-.1-.3.1-.2.5-.2-.2.2-.3.1-.4-.4-.2h-.4l-.3-.1-.3.1v.4l-.2.5-.1-.6-.5.1.1-.4.1-.3.3-.2.3-.2.3-.3v-.5l-.4-.1-.1-.5-.3-.6v-.4l-.3-.4-.2-.2-.4-.3-.3-.4-.3-.2-.3-.2-.2-.1-.4-.2-.3-.1-.3-.1h-.4l-.3-.1-.4-.1-.2-.3-.2-.2-.3-.4h-.3v-.3l-.1-.3-.3-.3-.3-.3-.4-.4h-.5l.1-.4-.1-.4-.4-.2-.2-.2h-.3l-.1-.3-.3-.4.6.1-.4-.1-.4-.1-.4-.1-.4.2h-.3l-.4-.1-.3-.2v-.3h-.6l-.4-.1-.3-.1-.2-.2v-.4l-.2-.2-.4-.2-.2-.1-.1-.5-.3.1.1.4-.2.1h-.6v.5l.2.5-.1.4h-.3l-.1-.3-.1-.3.2-.3.1-.2-.1-.4-.1-.4h.3l.2-.3-.1-.2-.2-.1-.2.1-.2.2-.3.1-.2.1-.3.1-.4-.2-.2.2-.2-.2-.3.1-.2.2v.7h-.3l-.2.2-.3.3v.5z"/><path class="st1" d="M43.6 149.3v.3l.1.2.1.5.3.1.1-.2-.2-.3.1-.2-.1-.2zM49.4 157.6h-.1l-.3-.1v.1l-.3-.1.1.4.2.1h.3l.1.2h-.3l.2.4-.2-.1-.3-.4-.1.3-.2-.2-.5-.3-.3-.2-.5-.3-.5-.4-.4-.2.1.2.4.2.3.2-.1.1.4.2v.2l.4.1.2.3.2.1.2.2.5.3.4.2h.3l.1.2.4.3h.3l.5.3-.3-.3.5.1.4-.1.5.1h.1v-.1l-.4-.1-.3-.2-.3-.2-.5-.3-.4-.3-.2-.3-.1-.2zM53.6 158.2l.5.4.2-.1.2.1.2.2h.4l.1-.1h.4l-.1-.2-.4-.2h-.3l-.5-.2h-.4l.2.2-.1.1zM47.6 115.4l.4.1.1-.1.1-.4h-.5.1v.4zM42.9 112.4s.2.3 0 0zM37.6 106.2l.2.1.2.3.2.2.2-.1.2.1.2.1v-.3l-.3-.2-.3-.1-.2-.2h-.3zM35.2 102.5v.2l.1.1h.2l-.1-.3-.1-.2z"/><path class="st1" d="M34.2 102l.4.2.1-.2.3.1.3-.1.2-.2.2.2.4.2h-.3l.2.3.3.2.4.1.2.3.2.1.3.3h.3l.1.2v.3l.2.4.5.1v.3l-.2.2-.2.1.4.1.3.1h.3l.3.2.4.1h.5v-.2h-.2l-.2-.3-.3-.2h-.2l.1-.3-.2-.2-.3-.1-.3-.4-.2-.2-.3-.3-.2-.3-.3-.2-.3-.1-.2-.4-.2-.1-.2-.3-.3-.1-.3-.2-.3-.1h-.6l-.2-.1-.4.1-.2.2v.2zM39.9 106.9l.4.3h.5l.2.2h.3l.3.2.2.4.2-.2v-.2l.4-.1v.2l.3.1.3-.1.4.1.2.3.2-.2-.2-.4-.6-.3.3-.1-.3-.1-.1-.3-.4-.2-.3-.1-.4-.2-.2.1-.4-.3-.3-.1-.2.1.3.1.1.3v.3l.2.4-.3.1-.3-.1-.2-.2-.3-.1zM44.5 108.5l.3.1h.3l.2.1.2-.1-.2-.3-.4-.1-.4-.1zM38.4 100.8v.2l-.2.2.2.4.1.5.2-.3-.2-.3.1-.3-.1-.4zM41.5 92.6l-.1.2-.3.1.3-.1zM43.3 88.3l.5.1h.4l.4-.1-.2-.2H43.5zM51.1 80.9l.4.3v.4l.3.2.4.2.4.1-.2-.4-.2-.3-.3-.2-.4-.2zM50.5 84.1l.1.3.3.4.4.3.1-.3.4-.1-.5-.1-.4-.1-.3-.2v-.4zM45.8 63.9l.4.1.7-.4v-.1l-.3-.1-.4.1zM47.5 64.3l-.3.7.1.4.4-.4.2-.5zM44.8 71.4h.3l-.5.4.3.1.3-.2-.2.5.4-.6-.1-.4zM42.5 74.6l.2.3.3.3v-.5l-.1-.1zM53.7 83.6v.5l.5-.1.5.2.4.1.5.1.4.2-.1.3-.3.2.3.2.4-.5h.3l.3.2-.3.4.4-.2-.1.4.4.1.2-.4.2-.5h-.4l.3-.5-.2.1-.3.3-.1-.2.2-.3.5-.4h-.5v-.4l.4-.4-.3-.2-.4-.1h-.4l-.3-.4.3-.2-.3-.3-.6.3.4-.5.2-.3.4-.5.3-.5-.3-.1-.5.2-.2.3-.3.4-.4.5-.3.6-.4.4-.3.4.2.2-.4.2zM45 61.5l.6.2-.2.6.4.1.6-.4.4-.3.4.1.2.5.2.5.6-.4-.3-.4v-.6l-.1-.6-.3-.6-.2-.7.2-.7-.7.4-.4.4-.4.8-.3.7zM51.9 57.9l-.1.7.6.1.5-.3.3-.5v-.5l-.6-.2z"/><path class="st1" d="M49.7 50.2v.8l-.1.8v.7l.4.8.5.2.7.5.5.1.4.8.5-.1.7-.6v.6l.3 1-.6.9.8-.3v.8l.4.6-.2.8-.1.6-.5.3-.6.5-.6.3.2.8-.7.3-.6-.2-.6-.5-.3.4-.3.1-.4.5.1.6.7.2.5-.2.4.3.4.4.3.4.3.4-.2.6.3.5.3.3.4.4v.3l.4.5.4.3.5.3.2-.5-.3-.6-.2-.6-.2-.5v-.6l.4.5.3.5.5.6.6.2.4-.9-.2-.6.2-.7-.1-.5-.4-.7v-.7l.4-.9.6.9v.8l.4.6.4-.6h.7l.3-.6.6-.7-.2-.5-.3-.6-.3-.6-.3-.7-.7-.2-.4-.8.3-.6.7-.1-.3-.8.5-.5-.1-.9-.4-.6-.3-1.1-.3-.5-.6-.3.4-.8.1-.5-.7-.1-.3-.5-.3-.2-.8.3-.4-.1-.7.3.6-.8.1-.7.5-.7.1-.5h-.6l-.9.3-.8.5-.5.7-.3.6-.3.7-.1-.7.3-.6.4-.6.5-.6.5-.3.8-.2-.5-.3-.6-.2-.6.2-.8.5-.6.5-.5.6z"/><path class="st1" d="M55.1 48.6l-.4.5-.2.7.4.4.5-.1.6.4.3-.4.2-.7-.3-.5-.5-.2zM50.5 44.4l.3.4.3.5.6-.8.1-.7-.3-.1zM53 41.2l-.4.6-.2.8.8.2v.5l-.3.7-.6.6-.5.8.5.7.6.3.6.4.6.2.7-.4.4.6h.8l.6-.6.4-.6-.4-.6-.6-.2-.5-.4-.9.1-.6-.5-.2-.6.4-.3-.2-.4.2-.6-.6-.2-.1-.6zM57.5 36.3l-.1.7-.4.8-.6.5-.5.8-.1.8.9.4.8-.5.9-.7.7-.3.6-.7-.4-.4.7-.7.2-.5-.6-.5.1-.7.6-.9-.5-.2-.7.8-.9.5z"/><path class="st1" d="M61.1 34.1l-.7 1v.9l.8.3h.9l.8.3 1.2.1-1.1.3h-1.1l-.7.3-.4-.6-1.1.9.3.5-.6.8-.3.8h-.6l-1.3.8.4.7-.9-.2-.5.7.1.4-.5.1-.8.3-.5.7.5.3.9.5.5-.1.4.3.6-.1-.2.6 1-.1.9-.6-.1-.9 1-.3.2-.6h.9l.9-.8.5-.9 1-.7 1.1-.2 1.1-.7.8-.7 1.2-.5L69 37l.4-.5.9-.5.8-.4.3-.5-.5-.4-.1-.6-.7-.5-.5-.6-.8-.2h-.7l-.6-.3-1.3-.2-1.1.6-1.1.2-.8.2-.3.5-.7-.3zM56 35.9l.3.5.3-.9zM53.1 36.2l-.2.4.3.5-.7.4-.1.5.3.5.4.2-.3.8.6-.1.5.1.5.2.5-.5.2-.5-.1-.9-.6.7-.7.7-.2-.3.3-.6.6-.7.1-.7-.5-.3v-.4l-.4-.3zM53.6 40.1l.3.6.5.4.6-.2.2-.4-.8-.4zM51.1 38.8l-.6.8.3.3.3-.6.3-.5zM49.8 40.6l-.3.8-.4.5-.1.8.7-.1-.4 1 .7.4.8-.7.4-.7.5-.6-.2-.7-.4-.3-.6.3-.5.7.1-.7.1-.6zM48.1 42.9l.3.2.2-.7zM46.2 46.4l-.1.5-.2.6.3.2v.8l-.2.8.7-.2h.7l.6-.8.4-.9-.3-.5.8-.6.3-.8-.6.1-.4-.3-.5.1-.4.4-.2.8-.4-.3zM49.8 36.6l.5.2v.3l.5.2.4-.2-.1-.6-.8-.2zM48.8 36.8l-.1.5h.3l.4-.5zM49.1 37.4l-.4.6.3.3.7-.1.7-.7-.3-.1h-.5zM44.6 39.7l.1.3.4-.3.6-.5-.6.1zM44.4 37.9l-.3.7.3.2.3.3.7-.3.6-.4v.6l.9-.4.5-.6.6-.3.1-.6-.7.3-.3-.3-.6.1-.6.2-.8.4zM44.6 40.5l.2.4.1.4.6-.2-.1.6-.6.1-.1.4.2.4h.4l.7-.2.5-.1.6.4.4.1.6-.6.6-.6-.2-.5-.1-.7.5-.8-.5.2-.6.4v.3l-.4.4-.2.6-.5-.4.3-.6.1-.5-.1-.7-.3-.3-.6.4-.8.6zM40 45.3l.1.6-.5.4v.5l.4.4.5.3.1.6-.6.1-.5-.3-.4-.2-.5.9.2.6.4.2-.4 1 .5.2.6.2h1.3l.7-.2v.6l.2.6.6.1.6-.2.2-.6.4.1.5-.6-.4-.5-.2-.7v-.7l.6-.7.3-.9.3-.6.8-.6.5-.4.1-.6-.5-.2-.8.6-.7.6-.2-.8h-.5l-.1-.5-.8.3.5-.9-.3-.2-.6.2h-.5l-.6.2-.3.4-.5.2z"/><path class="st1" d="M38.9 43.5l-.1.8-.4.9.6-.1.4.2.8-.5.8-.8.7-.2.7-.2.8-.1v-.8l.2-.8-.5-.3-.1-.7-.7.1-.6-.1-.6 1-.7.6-.7.5zM15.3 51.9l-.1.2-.1.1.1-.1zM15.2 52.5l.1.1v-.3zM15.4 52.7l.1.1.2-.2-.2.2zM16.1 53.6l.3-.1h.1l.1-.3z"/><path class="st1" d="M16.5 53.5l.2.1h.1l.2-.3-.1-.2-.1.3zM23.5 42.6l-.3.3.1.2-.2.6h.2v-.4l.2-.4zM21 47.2l-.2.3v.3h.2l.1-.2.1-.2-.1-.2zM20.3 53.3l-.2.7h.2l.3-.3.2.1.2-.4v-.2l.3-.1.1-.3-.4.1-.3.2zM22.9 62l-.3.6v.4l-.2.5-.1.6.1.6.1-.6v-.4l.2-.2.2-.6.3-.4-.2-.2zM22.5 66.6l-.1.7.1.4.1.4-.1.2.1.3v.4l.2.1-.1.2.1.5.1.3h.3v-.6l-.1-.6v-.5l.1-.6-.2-.4-.2-.4-.1-.4zM62.3 42.3l.2.6.5.1-.2.7.4.5h-.7l-.7.3.2.5.4.5-.6.2.2.6.6.6.7-.3.8.2.7.2.5.7.6.5-.3.5.1.7.1.9-.3.8.1.8-.2.7-.5.8v.7l-.5.7.1.5.6.1.5-.4v.9l.4.4v.8l-.7-.6-.6-.2-.5.8-.4.9.4.6.8-.1.7-.5-.1.9-.4 1-.8-.1-.6.5-.5.8-.3.8-.1.7-.2.7.4.8v.8l-.2.8.2.5-.1.5.2 1.1v.5l.2.7.1.8.4.8.7.2.5.3.2.6.7.5.4-.1.4-.6.2-.6.3-.6.4-.6-.1-.9.7-.4.5-.5.3-.7.2-.6-.1-1 .5.2.4-.5.7-.1.8.1.9-.4.6-.4.5-.4.5-.5.3-.6.6-.5.5-.4.8.2.7-.3.8-.2.7-.3.6-.3.6-.5.7-.4.5-.5-.7-.2-.7-.4-.7.3v-.4l.7-.3V58l.6-.2v.5l.1.7.4.3.7-.1.2-.8.1-.6-.4-.7-.4-.6-.5-.6.6.4.7.4.2-.5v-.9l-.5-.2.5-.3.3-.3h.7l.1-.6-.6-.3 1.2-.4.3-.6-.6-.1.5-.9.1-.9-.2-.9-.6-.2.1-.7.6-.4.8.4.3-.6-.2-1-.3-.7.4-.9-.1-.8.6-.5.3-.8.5-.9.7-.9.7-.7 1.2-1.1-.5-.8-1.2-.4-.8.7-.5-.3-.6.6-.8.4-.9.3.6-.9.8-.6.3-.3v-.6h-.8l-.1.6-.7.1.2-.8-1.6-.2.7-.3.9.1 1.3-.1 1-.5-.5-.7-.8-.4-.1-.6-.7-.8-1.4-.2-1.4-.4-1.4.4-1.7.3-1.2.7-.7.8-1-.3-.8 1-.7-1-2 .2-1.3.5-.1.7-.5.6-.6-.3-.8.4-1 .6-.9.8 1 .2-.2.7-1 1h-1.3l-.9.3-.9.1zM78.9 66.3l.4.2.5-.2.4.3-.5.4-.8.4.8.1.3.6-.5.6 1 .1.6.4.7.2.8-.4.5-.1.6-.4.8-.3.6-.6v-.8l-.5-.4v-.8l-.5.1-.3-.4-.4.4-.5.2-.4-.2-.5.1-.3.3-.3-.4-.2.7-.6.2v-.8l-.4-.5-.4-.2v.4l-.4-.1-.1.5z"/><path class="st1" d="M84 51.3l-.1.7.5-.1zM125.5 140.4v.6l.2.2v.9l.3.3.3.1.3.1.3-.1.3-.2.4-.2h.3l.2-.3.2-.3.1-.4.2-.2.1-.3v-.3l.1-.3.2-.3.1-.3.2-.3v-.3l.2-.3.1-.4.2-.3.2-.5.1-.3.1-.4v-.3l.2-.2.1-.3-.1-.5.3.2.2-.4v-.4l-.1-.5-.1-.3-.1-.4-.1-.3-.2-.3-.3.3-.1.4v.3l-.3.2-.4.1.1.3-.3.2v.3h-.2l-.4.4-.3.3-.3.2-.4.2-.4.2h-.3l-.2.6-.2.4v.4l.1.3v.3l.2.4-.1.3-.3.3-.1.3-.3.4zM159.6 113.7s.3.1 0 0zM160.3 114.4l.1.2.2.2v-.3l-.2-.3zM161 115.7l.1.3.1.2.1-.2-.1-.4zM150.4 113.5v.7l.2.5.1.2.3-.1.3-.2.2-.4.1-.3v-.5l-.2-.2-.2-.3-.2-.3-.2-.3-.4-.2.2.3-.2.4v.4zM164.8 98.3v.4l.1.3h.2l.2-.1.2-.3.1-.3v-.5l.1-.3v-.3l-.2.2-.3.1-.1.2-.2.3zM169 91.9v.4l.2.4.1.1.1.2v-.4l.1-.5v-.4l-.1-.5v-.8l-.2-.1-.1.4-.1.4v.4zM170.3 81.7l.2.4.2-.1-.1-.3.2.2.1.3-.1.3.1.3.1.4.2-.1.1-.4-.1-.4v-.9l-.2-.3-.1-.3-.2.2-.1-.2-.1.2-.1.4zM171.2 80.8l.1.4h.2V80.6l.1-.3.1.1v-.3l.1-.3-.2-.3-.1.1-.2.2v.3l-.1.1v.3z"/><path class="st1" d="M170.5 80.4l.1.4.2-.3h.1l.1-.4.1-.2.1-.3.1-.2.2-.4h.1l.2-.2v.4l.1.4.2.3.1-.1v-1l-.1-.2-.1-.3.3.1.2-.2v-.6l.2.4-.1-.6.1-.2v-.3l.1.6.1-.4-.1-.3.1-.3-.2-.3-.1-.5-.1-.3-.1-.5-.2-.4v-.3l.1-.1-.1-.3-.1-.4-.1-.5-.2-.4-.2-.3-.2-.3-.1-.3h-.2l.1.3.1-.1.1.2-.1.2-.2-.2.1.6.1.3.1.3.2.4.1.4v.5l.1.5v1l-.1.3-.1.4-.1-.2V76l-.1.4.1.4v.7l.1.4v.2l-.2-.1-.1.3-.2.3-.2.2-.2.2v.8l-.1.4zM170.5 71l.1.2.1.2.2.5.1-.3v-.4h-.1l-.2-.1-.1-.2.1-.1.2.1v-.3l.1-.2.2.1h.3l-.1-.3-.1-.4v-.4l.2-.1v-.4l.1-.3-.1.2-.1-.2-.1-.1-.2-.5v.4l-.1.1h-.2l-.3-.1-.1-.1-.3-.3-.2-.2v.3l.2.4.2.4.1.3v.3l.2.3v.3l-.1.1h-.1l.1.3zM171.3 68.3V68v.3zM164.3 60.3l.3.2-.1-.6h-.3zM166.4 49.9l-.1-.7-.2-.2v.3zM166.2 60.6l.4.5.2.6.2.4.3.3.2.3.2.5.3.4.2.5.2.4.1.4.2.2.2.4.1.4.3.6.1.4.3.5-.1-.5v-.3l.1-.1.2.2-.2-.4-.1-.1-.2-.3-.2-.1-.1-.2-.3-.5-.1-.5-.1-.3-.1-.3.2-.2.2.1-.2-.3-.3-.4-.3-.4-.3-.5-.3-.4-.3-.4-.2-.5-.3-.5-.3-.4-.3-.5-.2-.2-.1.2.3.3.1.3zM155.2 32.4l.5.7.3.3-.2-.4zM30.7 33l-.1.3.3.1.5-.6v-.4zM149.2 38.6l.5.1.4-.3-.4-.4-.8-.3-.1.3zM148.1 37.7l.5.4v-.3l-.3-.3zM147.3 34.7l.8.4.7.1.2-.3-.5-.6-.5.1-.4.3zM146.2 36.9l.9.5.3-.1v-1h.4l-.2-.5-.3-.7-.4-.3h-.4l-.1.1-.7-.2.5.8-1-.2.1.6zM133.3 39.3l.1-.6.7-.4.2-.5-.7-.8-.8-.4-.8-.3v.5l.4.8.5 1zM127.8 36.7l.9.6.8.1.8.6h.9l.7.1.3-.4-.7-.6-.5-.9-.7-.4-.7-.1-.7-.5-.3-.5-.7-.3-.6-.4-.1.9.4.8zM120.2 55.4l.8.5.7.4.8.1h.8l.3-.4-.8-.3-.5-.6-.5-.7-.2-.8v-.7l.1-.8.1-.7.1-.8.2-.8.1-.8.4-.7.4-.7.6-.5.5-.6.4-.6-.4-.9-.6-.1-.5.6-.1.7-.6.5-.9.2-.5.8-.2.6-.1.5-.6.6.2.5V51l-.2.8.5.5-.4.5-.1.8.3.5-.3.5zM120.2 59.9l.5-.4.1-.5-.8-.3-.2.5zM116 40.3l.6-.2.3-.7h.9l.1-.4-.5-.9.6.1.3-.5-.7-.8-.3.7.1.5-.8.5.3.8-.8.1zM114.6 39l1 .2.6-.5-.5-.3v-.8l-.6-.8-.3.8.4.8-.6.1zM114.8 40.2l.6-.2-.6-.3zM111.2 40.2l.6.3.5-.1.2.5.7.1.5-.3-.2-.5.1-.6-.4-.2-.6.6-.2-.4-.5-.2zM98 43.3l.1.8.4 1.3.7.9.9-.1-.6.6.3.8.6.9 1 .9v-1l.3-.9.2-1-.1-.8.5-.4.3.8.6.5-.3.9.9.3.9-1-.9-.6-.6-.6-.4-.7-1.2-.6-.3-1.1 1 .7 1.3.2.7-.6.4-.9-.2-.6-.9-.1-.8-.3-.7.6-.6-.7-.7.6.1.7-.7-.2-.3.8-.7-.3zM88.5 77.1l.6-.5.2-.6-.6.4v.4zM99.7 79.6l.3.4h.4v-.4l-.3-.2zM100.6 79.2l.1.6.4.1.4-.2-.2-.2.3-.3-.2-.5-.4.3zM100.6 80.2l.2.3.4-.1.1-.2-.3-.1zM105 76.9l.2.5.3-.3-.1-.5.3-.3-.5.2zM107.3 75.7l.2.3.3-.3.3-.3-.5-.1zM107.5 75l.1.2.4-.2-.4-.2zM89.4 85.6l.4.1.4-.3.6.2.1-.5.4-.1.5.2.5-.2h1l.6-.2.3-.4-.5-.1.2-.5.5-.2.1-.5-.1-.4-.5-.1h-.2l-.2.2-.2-.1.2-.3-.1-.4-.2-.3-.1-.3-.2-.5-.4-.2-.2-.5-.1-.6-.2-.4-.5-.2h-.4l.3-.3.3-.3.2-.6.2-.3-.1-.4h-1.4l.2-.5.5-.3-.1-.4-.6.1H90l-.2.5-.2.4-.1.4-.4-.2-.2.2.3.3h.4l-.3.6v.4l.4-.2-.1.5-.4.4h.4v.4l.3-.5.3.4-.3.7.2.4.5-.2.5-.2-.2.5.3.3h.3l-.3.5v.5l-.3.1-.7-.1.1.2-.2.4h.4v.6l-.3.2-.5.2.2.3.4-.1.3.1.4.3.5-.3-.3.5h-.7l-.3.4-.3.4z"/><path class="st1" d="M86.3 83.3l.1.4.3.3.6-.1.5-.1.6-.4.6-.1.1-.4.1-.5v-.5l-.1-.5.5-.4-.2-.5-.2-.4-.4-.2-.5-.1-.5.2-.3.5.3.2-.2.3h-.9l-.1.3.3.2-.3.3.3.4h.3l-.3.5-.2.6zM99.5 93.3l-.1.4.1.3.4.4.1-.5.1-.3-.1-.3v-.5l-.1.3zM99.2 94.8v.3l.2.5v.4l-.1.5.3.3.3-.3h.3l.1-.4V94.9l-.4-.4-.3.3-.2.1zM102.3 97.5l.3.4h.2l.5.3.3.1.3.3h.5l.1-.3-.2-.3.2-.5.2-.4-.5.2-.5.1h-.4l-.4-.1h-.3zM108.6 97.3l.4.3v.4l.1.2h.3l.2.3.2-.4.4.3-.3-.5-.1-.4.4.1-.3-.5-.4-.2-.4-.1-.3.2zM110.5 99.5h.7l.3.2.5-.1.4-.1.1-.2-.4.2v-.3l-.4.1-.3-.1-.3.1-.1-.1-.4-.1zM116.8 99l.1.3h.5l.3-.1.1-.2.3-.1-.1-.2.4-.4-.5.2-.3.1-.3.1-.1.2zM94.9 96.2l.3.1.3.2.3-.4-.4-.2zM113.5 98.3v.3l.3-.2.1-.4zM112 95.7l.2-.1v.2zM112.1 96.3s0 .2 0 0zM165 134.8h.2v.2h.2l.2-.2.2-.1.2-.2.2-.2.2-.4.2-.1.2-.3.1-.2.3-.3.2-.1.2-.2.3-.1.2-.2.1-.1.3-.3.1-.5.3-.3.2-.2.3-.4.1-.3.2-.1.3-.2.1-.2.3-.3.2-.3.2-.2.2-.2.2-.1.1-.2h.1l.1.1.1-.2h.2l.1-.1v.1l-.1.3h.1v.4l-.1.2v.3l-.1.2.2-.4.2-.4.2-.3.2-.3.2-.5.2-.3-.2.5-.2.4-.1.4-.2.3-.1.2-.1.2.1-.2.1-.1.2-.3.2-.4v.2l-.1.2-.1.3-.2.3.2-.3.1.1-.1.2v.3l-.1.2-.1.2V130.6l.1-.1-.1.2.2-.2.1-.1v-.1l.1.1.2-.4.2-.3.2-.4-.1.4.2-.3-.2.3v.1l.3-.5.2-.3.2-.4.1-.2.1-.3.2-.1.1-.4.2-.3.1-.4.2-.4.1-.4.3-.5.1-.3.2-.5.2-.4.1-.4.2-.4.1-.3.2-.4.1-.4.2-.4.1-.4.1-.3.2-.5.1-.4.1-.4.1-.3.1-.3.1-.3.1-.4.1-.4.1-.3v-.6l.1-.2v-.2h-.1v-.4l.1-.4v-.1l-.1.3v-.9l.1-.3h-.1v-.1l-.1-.2-.1.1h-.1l.1-.3v-.5l.1-.3-.1-.2v-.2l.1-.4v-.3l.1-.3-.1-.2-.1-.1-.1.3v-2.1h-.1l-.1.4v.4l-.1.3-.1.4v.2l-.1.5-.1.3v.7l-.1.4-.1.4-.1.4-.1.4-.1.3-.1.4-.2.2-.1-.2v-.2l-.1.1h-.1l-.1-.1-.1-.1-.2.2v-.3h-.1l-.1-.1.1-.4.1-.3v-.3l.1-.3.2-.2v-.4l.1-.4h-.1l-.1.4-.1-.2-.1.3-.2.1h-.2l-.1.1-.2-.1-.2.1.1.2-.1.4-.2.2-.2.2-.2.5-.2.3v.3l-.1.2-.1.4-.2.4.1.1-.1.3-.1-.1-.1.1-.3.4.1-.3-.1-.1-.1-.2-.2.1-.1.3-.2.2-.1.3-.2.2-.1.3-.2.4-.1.4-.1.3h-.2l-.1.4.1.2-.2.4-.1-.2v-.3l-.2.5-.2.4v.4l-.2.4-.2.5-.1.3-.2.3-.3.2-.2.3-.2.2-.3.3-.1.2-.3.3-.2.2-.2.1-.2.3-.2.3-.2.3-.2.3-.2.3-.2.3v-.3l-.2.4-.1.4v.2l-.1.3-.2.4v.3l-.1.4.1.2v.2l-.1.4-.1-.1v-.2.5l-.2-.1v.3l.1.1v.4l-.1.3.1.2.1.3-.1.3-.1.3V132.9l-.1.4-.2.4v.2l-.2.3-.2.2z"/><path class="st1" d="M173.8 114.9l.2-.2.3-.4-.1-.1-.2.2h-.1zM171.8 130.2v.1l.1-.2.2-.3h-.1l-.1.2zM172.3 131.4l-.2.4-.1.4-.1.2-.1.3-.1.3-.1.2.1-.1.2-.4.2-.4v.1l.2-.4.2-.4.1-.2.2-.3.1-.4v-.1l-.2.3-.2.3-.1.2zM159.2 111.8l.1.3.1.3.2.2.3.2h.2l.1.2.2.2.2.3.2.1.3.1v.2l.1.3.1.5h.3v.2l.3.2v.2l.2.4v.2l.2.3.2.3.2.1.1.2.2.2.3.2.3.1.1.2h.2l.1-.1.2-.2.2.1v-.4l.1-.4v-.8l.1-.4-.1-.2-.1-.1-.3.1-.1-.3-.1-.1-.1-.4-.2.1-.2-.1.1-.4.1-.3-.3-.2-.2.1.1-.3h-.2l-.2-.2h-.3l-.2-.2-.3.2-.2-.3-.2-.3-.2-.1h-.3l-.2-.2-.2-.2-.1-.2-.2-.2-.4.2-.3.1-.2-.1zM164.2 118h.5v.2l.2-.1.3-.1.2.1.2-.1.2-.2.3-.1.2-.1.1.1.3-.1.2-.1.2-.1h.2l.3-.3H167.9l.2-.1v-.3l.1-.4-.3.1-.2.2-.2.1v-.3l-.2-.1-.2.1h-.4l-.2.4-.2.1-.2.1-.2.1-.2.1-.1-.2h-.6l-.2.2-.3.1-.1.4z"/><path class="st1" d="M168.1 116.7h.2l.1.2.3-.5h-.2zM168.8 116.8l.2-.1.2-.1.2-.2.2-.2.2-.2.2-.2.2-.2h.2l.2-.2h.1l.2-.2.2-.1.2-.3.2-.2.3-.4-.3.2-.2.4h-.1l-.3.2H170.6l-.2.3-.2.3-.2-.1-.2.2h-.3l.1.3h-.2l-.2.2h-.2l-.2.2zM172 114.1l.3-.3h-.2zM172.6 113.3l.2-.1.1-.4-.2.3zM169.9 116.3l.1.2.2-.1h.1l.1.1.2-.3-.1-.2h-.2l-.2.1zM171.6 115.7l.2-.2.2-.2.2-.5.2-.4.1-.3.2-.2.2-.3.1-.4-.1.2-.2.2-.2.2-.2.3-.1.3-.2.3-.2.2-.1.3zM174.4 111.8l.1-.4v-.3l-.1.3zM175.3 110.2l.2-.4v-.8l-.1.4v.4zM164.2 114.7h.3l.1.1-.1.3h.4v-.3h-.1l-.1-.3-.1-.3-.3.2zM165.3 114.9h.2l.1-.4h-.2zM167.6 116.3l.2-.1s.2-.2-.2.1zM165.9 111.7l.1.4.1.2v.3l.2.1.1.3v.3l.1.4v.4l.3-.1.2-.2.2-.2v.5l.2-.2.2-.1.2-.3h.3l.2-.2.1.2v.3l.2-.3.2-.3.2-.3.1-.4.2-.6-.2-.2.2-.5.2-.3.1-.4v-.4l.1-.4.1-.3.2-.1.2-.3-.1-.1-.2-.1-.2-.2.1-.3-.1-.2-.1-.3.1-.4v-.4l.3-.3-.2-.2.2-.3.2-.3h-.2l-.2-.1h-.2v-.4h-.2l-.1-.1-.2.3-.1.4-.1.3-.2.6v.3l-.3.2-.2.3-.2.5-.2.4-.1.4-.2.3-.2.2-.3.2v.5l-.1.5-.2.1-.3.1-.2-.1-.2.4zM170.1 111.7v.5l.3-.2v.8l-.1.4v.3l.1-.1.3-.2-.1-.3.1-.4v-1l.1-.4.2-.1v.2l-.1.4.1.2.2.1-.1.4h.2l.1-.3v.5l.1.2.2-.4v-.4l-.1-.2-.1-.3-.2-.1.2-.3-.1-.2-.1-.2-.1-.2.2-.4.1-.3.2-.4.2-.2-.1-.2-.2.3-.2.3-.2.1-.2.4-.1.2-.1-.3h-.2v-.4l.1-.5.2-.1h.1l.1-.2.2-.2.2-.1.2-.2h.2l.2-.2.2-.3.2-.5v-.4l-.1.2-.2.4-.1.3-.2.1-.2.2h-.2l-.2.1-.2.1h-.2v.5l-.3.2v.3l-.1.3v.4l-.1.3-.1.3v.9zM173.3 106.6l.1.2v.6l.1.2.2.1-.2-.3V106.8l.2-.2-.1-.1.1-.3v-.4l-.1.4-.2-.3.1-.3-.1.3-.1.3zM172.8 110l.1.2h.2l.1-.3-.1-.2-.1.1zM173.4 109.4h.2l.2-.2h.2l.2-.2h.2v-.3l-.1-.1-.2.1h-.1l-.2.2-.2.2zM172.3 109.4s.2-.2 0 0zM173.3 108.5l.3-.2-.2-.1zM174.3 106.6h.1l.2-.2-.2-.1zM175.8 105.4l.2.3.1-.2-.1-.2z"/><path class="st1" d="M174.5 107.2h.1l.2-.1v.3l.1.1.2-.1.1-.3.2-.3-.1.4-.1.2-.2.3-.1.1-.1.2h.1l.1.1v.2l.1.3.1-.2.1-.4.1.1H175.7l.2-.1H176.2l.2-.1.1.1.1.1v.7l.1.3-.2.2-.1.3-.1.6.2-.2.1-.4.2-.1.2-.3v.2l.1.1.1.1.1-.1.1-.1.2-.1.1-.3.1-.3v-.2l.1-.2v-.3l.2-.4.1-.1h.2v-.1l.1.3v.2l.1.1.1.1v.2l.1-.1.1-.1.1-.1.1-.1v.1l.1-.2.1-.3-.1.1h-.1l.1-.3-.1.1h-.1l.1-.3-.1.3-.1-.3v-.4h-.1l-.1-.2v-.2l.1-.2.1-.2.1-.3-.2-.2-.1.3-.1-.1-.1.1V105.1h-.1l-.2-.1h-.1l-.1-.1-.1.1h-.2l-.2.1h-.2l-.1.1-.2.1h-.1l-.2-.1h-.1l-.2.4-.1.4-.1.2-.1.4-.1.3-.1.4-.1.1-.1-.1-.1-.3h-.1l-.1-.3.1-.4-.1-.4-.2.2-.1-.1-.2.2-.1.3-.2.3zM169.7 97.7l.1.4.1.3.1.3.2.1v-.2l.1.1v.6h.2l.2-.4h.2l.2.3-.1-.3v-.2h.2l.2.4h.1l.1-.2-.1-.2-.1-.1.1-.2h-.5l-.1.3h-.2l-.1-.3-.2-.4v-.4l.2-.5v-.4l.1-.4-.2-.1-.1-.4v-.5l-.1.3-.2.1-.1-.1-.2.1v.8l.1.3v.5l.1.4zM169.3 104.1l.3-.4v-.3l.2-.4v-.4l.2-.2.1-.4-.1-.5-.1.6-.1.5-.1.3-.2.4-.1.4zM170.2 99.6l.2.2.1.4.1.1.1-.3v-.4l-.2-.1h-.1zM171.8 99.2v.3l.3.1-.1.3-.1.1v.4h.1l.1.4.1-.2-.1-.2v-.4l.2-.1-.1-.4v-.4l-.1-.2-.2.2zM171 101.3l.2-.2h.1l.1.3-.2.3.1.3.2.1.1-.3-.1-.3h.1l.1-.3.1.2.2-.2v-.3l-.2.1v-.3l-.1-.4v.4l-.1.3v-.4l-.2.1v-.5l-.2.2-.1-.1-.2.1.1.2v.4zM171.2 103.7v.2l.1-.3.1-.4.1-.1v.2l.1-.1.2-.3h.1l.1.1-.1.3.1.4.1.1.2.1.1-.1.1.1.1-.4-.1-.2-.1-.2.1-.2.1-.3.1.2.1.4v-.5l.1-.3-.1-.3-.1-.4v-.4l-.2-.3-.2-.1.1.5-.1.2h-.1l-.1.4-.1.2-.1.3-.1-.2-.1-.1-.2.2v.4l-.2.2-.1.3zM179.1 104.9v.2l.1-.1v.1l.1-.1.1-.1.1-.2.1-.3.1-.5.1-.1v-.4l.1-.4v-.3l-.2.3.1.5-.1.1-.1.5-.1.1-.1.2-.1.2-.1.2zM178.8 103s.1-.1 0 0z"/><path class="st1" d="M179.7 102.1l.1.1.1.1h.1v.8-.7l-.1-.1-.1-.1-.1-.1zM180.3 102.9v.6l.1.1v-.5l-.1-.3zM180.6 103.9s0 .2 0 0zM180.6 103.3l-.1-.1.1.1zM180.9 103.3l-.1-.1v-.1.1l.1.1zM181.1 103.7l-.1-.2v-.5.5zM180.8 104.1V104.4l.1-.1v-.1l.1-.3h-.1zM181 104.2v.2l.1-.2v-.2zM181.2 105.7v.6l.1-.3v-.3c-.1 0-.1.3-.1 0zM181.1 106.3v.4-.2zM180.3 110.4l-.1.3v.5l.1-.2v-.5zM4.8 102.7v.5l.1.3v.2-.2l-.1-.3v-.2zM7 81.5s0-.1 0 0zM7.1 81.5v.2l.1-.2-.1-.1zM7.2 82.3v.4l.1-.4zM7.3 82.9s.1.2 0 0zM7.4 83.2v.2l-.1.2h.1v-.3zM7.4 84l-.1.2v.1l-.1.4v.4l.1-.1v-.1l.1.1V84.2zM118.4 102.2l-.6.2-.4.1-.2-.2-.2.3-.3-.1.1-.3h-.5l-.4.1-.4.3-.4.2-.3.1-.5-.1h-.4l-.4-.1-.3-.1h-.4l-.4-.1-.4.1-.3-.3h-.4l-.4-.1h-.4l-.2-.4-.4-.1h-.5l-.4.1-.4.2-.4.4-.2.3.1.2.1.4-.1.4-.2.2-.3.2-.4-.1-.4-.2-.5-.3-.6-.1-.5-.1-.3-.1-.2-.2v-.5l-.5-.1-.4-.2-.4-.1h-1.1l-.3-.1-.5-.2-.1-.4-.3.1-.3-.1-.1-.4.2-.2.3-.3.2-.4-.1-.4-.2-.1-.2-.6.3-.1.2-.4-.5.2-.2-.4h-.8l-.3.3-.3.1-.6-.2-.3.2-.5-.1-.3.2-.4.1-.3-.2-.4-.1h-.4l-.3.1h-.4l-.3.2-.5.1H94l-.4.3-.3.3h-.4l-.3.1-.2.3-.6.2-.3.1-.4-.2-.3.1H90l-.5-.3-.2-.3-.4.1-.2.4-.1.4-.2.4-.2.3-.4.3-.5.2-.3.1-.3.4-.3.3v.3l-.2.4-.3.1v.8l.2.3-.2.5-.3.3-.3.4-.4.1-.3.4-.5.2h-.5l-.3.4-.1.4-.2.3-.4.1-.2.2-.1.4-.2.4-.2.4-.3.4-.3.3-.2.3-.2.5-.2.4-.2.2-.1.4-.1.3.3.3.3.4v.4l-.3.2.3.4.1.4v.4l-.1.4-.1.4-.1.4-.1.5-.2.3-.2.3-.3.1.3.3.2.4v.4l-.1.4v.4l.4.2.3.2h.3l.1.5.3.1.2.4.2.3.3.2.3.3.3.3.1.4v.3l.2.3.3.4.4.2.4.2.3.3.5.3.4.4.4.2.3.3.5.3.4.1.3.1.4-.3h.5l.3-.2.4-.1h.5l.3-.1h.4l.6.1.4.1.4.2.3-.2.4-.1.3-.1.4-.1.4-.3h.6l.1-.2.5-.2h.8l.4-.1h.5l.4.1.4.3.1.5.2.5.4.2h.4l.4-.1h.8l.3-.1h.4v.4h.3l.2.3.3.3-.1.4-.1.4-.1.3-.2.3.2.1-.2.3v.7l-.4.3.2.3.1.4.3.3.2.3.4.2.3.3.2.2.3.2.2.3.3.3.1.2v.3l.2.2v.3l.2.2.2.3v.4l.3.3.1.3-.4.4.2.1.1.4.2.2.2.3.1.4-.1.4-.2.3-.2.3-.3.1-.3.3-.1.4-.1.4-.1.4-.1.3-.2.4v.3l-.1.3v.3l.1.3.2.5.2.1.2.3.2.3.2.4.1.4.3.2.1.3.3.3.1.2-.1.3.1.4V144.3l.2.4v.6l.2.3.1.4v.3l.3.3.1.2.4.2.2.3.1.4.2.3.1.3.2.3.2.2.2.4.1.4-.2.2h-.2l.3.4.1.2v.3l.2-.1.3.2.3.2.4-.1.3-.1.4-.2h.5l.3-.1.4-.2.4.1.3-.2.4.1h.4l.2-.1.5-.1.2-.2h.5l.3-.1.3-.3.5-.2.3-.2.2-.3.4-.3.2-.2.3-.3.4-.3.2-.3.2-.3.3-.3.2-.3.3-.3.4-.2.1-.4.2-.4.1-.3.1-.3v-.2l-.3-.1.3-.4.4-.2.2-.1.5-.3.4-.1.3-.2.2-.4v-.6l.1-.4-.1-.2-.2-.5v-.4l-.3-.2.1-.3.4-.3.2-.2.2-.3.4-.1.3-.4.2-.3.3-.3.4-.2.3-.2.5-.1.2-.3.4-.3.3-.2.2-.4.2-.3.1-.3-.1-.4v-.4l-.1-.3.1-.5v-.2l-.1.3.2-1v-.4l-.3-.2-.2-.1-.1-.3-.2-.4v-.8l.2-.4-.3-.3-.3-.3.1-.4.1-.4.2-.3.2-.3.3-.5.2-.4v-.4h.3l.3-.4.3-.2.2-.4.2-.3.3-.4.3-.4.2-.3.3-.3.3-.2.3-.3.3-.3.4-.2.3-.3.3-.3.2-.3.3-.4.2-.3.3-.3.2-.4.2-.3.2-.3.3-.3.1-.5.1-.3.2-.4.2-.3.1-.4.1-.3.2-.3.2-.5v-.4l.1-.3.1-.5v-.6h-.4l-.3.4-.4.2-.4.2h-.3l-.4.2-.4.1-.4.3-.4.1h-.4l-.3.3-.4.2h-.4l-.2-.2-.2-.3-.3-.2-.2-.1.3-.3-.1-.3-.3-.3-.3-.3-.3-.3-.4-.2-.3-.3-.3-.1-.5-.1-.2-.4h-.2l-.2-.3-.1-.4-.1-.4-.2-.4-.2-.3-.4-.2-.3-.2-.3-.4v-.3l-.1-.5v-.7l-.3-.3v-.4l-.2-.1-.4-.2-.2-.2-.2-.3-.1-.3v-.3l-.2-.3-.2-.4-.2-.3-.3-.3-.1-.4-.3-.4-.1-.3-.1-.3-.2-.3-.2-.3-.3-.3-.2-.3v-.4l-.3-.3.2-.2.2.4.2.4.2.3.1.2.3.3.3.2.1-.1v-.4l.2-.5.2-.5z"/><path class="st1" d="M132.9 60.7l-.8-.4.5-.6.1-.6v-.6l-.2-.6-.1-.6-.7-.5-1.4-3-.7-.5-.2-1.4-.2-.5-.8-.2-.1-.4-.5-.5-.3.4.1 1.5.3.7.1.7-.3.7.2.6.5.6v.6l.2.5.6.1.5.7.5.2.1.8-.6-.2-.5-.4-.6-.1-.6-.3-.5.1-.7-.4h-.7l-.9-.3-.8-.5v.6l.4.3.6.2.8.9-.1.4-.3.2.2.5h-.4l-.3-.9-.4.4-.3.6h-.6l-.4.2-.1.5-.5-.4-.3-.7-.7.9-.5.4-.3.4-.9.8.3.8-.4.4-.5.1-.4-.4-.6-.1.2-.7.5-.2-.3-.6-.5-.3-.6.1-.7-.1.7.5.2.9v.7l.4.2.2.7-.2.5-.5-.2h-.5l-.3.5-.5.4-.3.6.8 1.1h-.7l-1.1-.4-.5-.1-.1.5.5.5h.4l.2.6-.7.1-.7-.5-.7-.2-.4-1.9-1.2-.8-.5-.7.6.4.7.2.6.2 1.2.1.6.2.7-.2.5-.5.2-.5-.1-.7-.4-.6-2.5-1.5-.7-.2-.8-.2h-.8l-.1-.5-.6-.2-.4.3-.7-.1-.8-.4.7.1.6-.6-1.3-.6-.8-.2-.3.9-.2-.6-.5.6-.1-1-.4.3-.2.6-.6-.4-.5.5-.3.6-.7.4h-.7l-.4.8-.5.3v.5l.4.1-.5.5-.1-.5-.3.4v-.7l-.4.5-.5.4.4.3-.7.3-.4.6.6-.5 1.2-.3-.6.8-.2.6-.4.6-.8 2.5-.5.5-.3.8-.7 1.2-.3-.4-.5 1-.7.2-.3.5-.9.9.2.4-.2.5.2 1 .3.5-.2.4.1.4.5-.1-.3.5-.1.5.3.3.6.3h.5l.5-.3.8-.9h.3l.2-.4.3.2.2.8.8 1.8.4.5-.1.4.2.5v.4l.9-.1-.1-.4.3-.5h.8l.2-.7.2-2.2.9-.8-.3-.2.4-.3.1-.3-.2-.5-.9-.7-.1-.6v-1.2l.5-1.1.8-.8.5-.4.1-.4.4-.5-.5-.3.3-.5-.1-.3.3-.3.2-.5.4.1h.4l.4-.2.5.4.1.7-.3.3-.3.7-1.2 1.9-.2.7.1.6.3.6-.1.7.1.4.8.6.6.1.6-.1 1.6-.8.7-.1.5.5.4-.2.4.5-.7-.1-.7.8-.6.1-.6-.2-1.1.3-.4.4.1.5.2.5h.4l.1 1.2-.3.3h-.3l-.3-.4-.4-.3-.4.2-.4 1 .2 1.2-.1.6-.5.4-.1.4-.3.3h-.4l-.3-.6-1.1.4-.4.4-.5.1-.6.3-.7-.2.3-.2-.3-.4-.2.3-.5.1-.6.5h-.4l.1-.3-.6-.3v-.3l-.4-.3.4-1.1.5-.2-.1-.4h-.3l.1-1.3-.5.1-.2.4-.5.1-.3.3-.1.4.1 1.1.4.3v.5l.2.4-.2.2.3.3-.3.3v.4l-.4-.2h-.4l-.3.3h-.6l-.4.2.1.5h.2v.3l-.2.3-.3-.2v-.5l-.3.1-.2.8-.5.7-1.3.7-.1.8-1 .4-.1.5-.4-.1-.3.1-.2-.5h-.4l.2.6.1.6-.8.1-.3-.4-1.2.3.1.6.3.1h.3l.4.3.5.1.4.5-.1.3.2.2.3.3.2.4-.2 1.6-.1.6-.2.2-.3.1-1-.2-.6.2-1-.3-1.1.1-.5-.3-.2.4-.5.1-.1.2.2.6v.4l.1.8-.3 1.4-.2.3-.1.5.2.3h.3l-.1.9-.1.4h.8l.3-.1h.3l.3.2.4.7.4.2.3-.4.4-.1.4-.1h1.3l.6-.8h.4l.1-.4.3-.3.4-.3-.4-.3v-.4l.9-1.4.8-.4.8-.5-.1-1.1.7-.5.9.3.4.2.4-.1.3-.3.8-.5.2-.3.3-.2 1 .3.1.5.2.4.4.4v.3h.4l.7.8.3.2h.5l.6.5.3.1.2.4.5.1.3 1.1-.1.2-.1.6h.2l.4-.5-.1-.3.4-.2V96l-.4-.2.1-.5.2-.3.6.2.1.3h.2l.2-.3-.4-.4-1.6-.7.2-.4-.6.1-.8-.5-.2-.2-.1-.4-.2-.4-.6-.5-.4-.3v-.3l.1-.4-.2-.2v-.3h.3l.4-.3.3.1-.1.2.1.3.2.3.2-.2v-.3l.5.3.1.4.2.2v.4l.5.2.1.2.5.1 1 .7 1.1.8v1.4l.3.2.7 1.1.4.4h.5l.6-.1.2.3h.4l.4.3v-.5l.4.1-.3-.1-.1-.3-.6-.4-.1-.3-.5-.6v-.6l.4.4.3-.1.1-.2-.2-.2.4-.1.2-.2h1l.3.3.3-.2-.2.4v.2l.8-.9 1-.2.4.3-.3.1.1.2-1.7.2-.3.3-.1.6.6-.1-.1.2.1.5.1.3h-.1l-.3-.2v.3l.7.3-.1.3.3.2-.2.3h.7l-.1.2h.5l.5.3.3.1.6-.3v-.4h.5l.5.2.2.3.4.1.3-.2h.3l.5-.7.5.2.3-.1.3-.3.1.2-.2.3.1.3-.1.3.2 1.1-.2.4-.4 1.9-.4.7.8 1.4v.4l-.2.9.4-.1 1.5 2 .4.8.7.4.5.7.1.4-.1.3.2.8.4.4.5.1.3.3.8 1.4.3.1.2.4.3.6v.7l.3.9.2.2-.1.3.3.4h.3l.7-.3.3-.1.2-.3.7-.1.3-.1.5-.5.4-.1.3-.2.2-.4.4-.2 1.8-1-.1-.2.1-.3.4-.3.6-.5.4-.1h.3l.2-.2.1-.5.6-.3.2-.1.1-.5.2-.2.5-.3-.1-.3v-.4l.2-.4.2-.1.3-.6.2-.3.3-.8-.3-.2-.5-.5-.7-.1-.4-.1-.6-.5-.1-1.1h-.2v.3l-1 1.2-.1.4-.3.1-.7.1-.3.3h-.4l-.1-.2h-.3l.2-.4v-.4l-.1-.4-.2-.3-.1.1-.1.4-.2.4-.4-.5.1-.3-.2-.4-.9-.8-.6-1.1-.3-.1.4-.2.3-.8"/><path class="st1" d="M128.9 101.2l.5.3.2-.2.3.3.6.8.4.7h.5l.6.5h.3l.3.2.3-.1.3.1 1-.7.3-.1.3.2.2.8 1.6-.1 1.4-.1 1.1-.4.2-.2.6.1.9-.5h.3l.4.4.3.6.6.2.2.2.4.2.3-.1.4-.2-.1.4-.3.2-.3.1.2.4.2.2.3.2.4.1.3-.1.3-.2.2-.3.1-.9.2.1v.4l.2.6v.8l.3.6-.1.2.5 1.7.3.6.5.6.5 1.5.6.7.5 1.5.4.4h.3l.2-.2.1-.5.5-.4-.1-.4.2-.4.3-.1-.1-1.1.2-.8.1-.4-.3-1.3.1-.7h.4l.1-.4.4-.3.2-.2v-.4l1.1-1.6.5-1.1.4-.4.3-.7-.1-.3.1-.3.4-.4.1-.3.1.4 1.1-.7.5-1 .2.3.4.8.6.7.2-.1.2.3-.1.2.2.3.2-.1.3 1.2v.9l.2.1.4-.2.6-.9.1-.3.1.1.3.2.3 1.1.5 1.5v.5l.1.3v.3l-.1.3.1.8-.1.5.1.6.1-.2.8.8.2.4v.7l.2.2-.1.3.4.5.1.3.4.3.6.2.4-.2-.1-.3-.4-.5v-1.4l-.2-.3-.6-.4-.2-.2h-.3l-.2-.1-.2-.7-.1-.1-.1-.5-.3.2-.1-.8.3-1.5-.1-.9.2-.3h.3v.5l.5-.2.2.2.2.1.4.6.2.2.3-.2.1.2h.3l-.1.8.1.2.4-.7.2-.1.2-.4-.1-.5.3-.1.7-1.2.1-.3-.1-1.5-.4-1.1-.4-.4-.5-.3-.4-.4-.1-.3-.2-.1-.2-.4.1-.8.4-1.1.5-.9.2-.1.3.1.1-.1v.3l.2.5.2-.1.1-.2-.2-.2v-.3l1-1.3v-.4l.2.1v-.4l.3.2.1-.4.6-.5.1-.4.5-1.3v-.3l.2-.1.1-1.4-.1-.6h.1l.2-1.5.1-.1v-.2l-.1-.2v-.4l.1-.1-.1-.7h-.4l-.2.2h-.1l.2-.3.1-.4.1-.2-.1-.3-.3-.2.2-.1-.1-.3-.4-.2-.6-1.3-.6-.1v-.8l.2-.7v-.4l.3-.7.2.1-.1-.5-.5.2-.2-.1-.2.3v.5l-.2.1-.2-.1-.2-.3-.5-.2-.2-.2v-.7l.2.1.2-.3V79l.2-.6.1-.9.2-.1.3.3-.1 1 .3.2-.1.5.2-.5.1-.4.2-.6.2-.2h.6l.1 1.4.4.1.2-.2.2.1.2.3-.2.3.6.8-.1.4.4.8.1-.4.3-.6.2-.4-.1-.8-.5-1.1-.7-.8-.4-.2-.1-.4-.1-.1.2-.5.2-1-.3-.7v-.5l.1-.3v-.4l.1-.1-.1-.7.2-.2.1.3h.3l.1-.3.2-.8-.2-1V69l-.3-1.6-.3-1.7-.3-1-.7-1.4-.4-1.4-.2-.1-.4-.9-.5-.2-.2-.2h-.2l-.2.2.1.6-.1.4-.1-.4-.2-.4-.1.2.1.5-.4-.8-.2.3h-.2l-.2-.2v-.5l-.1-1.7-.8-4.1.1-.4.4-.4h.2l-.1-.4h.3v-.3l.2-.1-.2-.5v-.2l.4-.1V52l.2.2.1.4.2.2.1-.2v-.7h.2l.1-.4-.3-.2-.1.1-.5-1.1-.7-1.7.1-.8h.2l-.1-.4.4.8.6.6-.6-1.6V47l-.6-1v-.4l.1.1.2.4 1 1.6.2.8.9 2.1.4 1.2v.6l.2.3.2.5v.3l.9 1.7 2.6 3.7-.2-1-.6-1.3-.1-.4.1-.2-.5-.9-.1-.4v-.4l.1-.1-.1-.3-.7-.7-.2-.5v-.3l.2.1-.1-.2-.3-.5h-.2l-.5-1h-.2l.1.2-.3-.3-.5-1.1-.6-.9v-.4h.2l-.3-.8.4.5-.4-1.3.1-.2.5.3-.4-.6-1.4-3.7v-.3l.3.1-.4-.6-1.4-1.3v.2l-.4-.4.1-.2-.4-.7-4-4.2h-.4l-.5.1v.4l-.4.7 1.1.9.3.5v.2l-.4-.3-.2.1-.4-.4.1-.2-.3-.3-.2.1.5.9-.2.1-.3.3v.5l-.2.4h-.3l-.5-.6-.5-.4-.4-.1-.5.4.1.5-.2.2v.4l-.4-.4-.4-.1-.1.2-.4-.2-.6-.6-.4.1-.3.4h-.5l-1.1.6.5.3-.3.3.2.4 1.1.8-.4.2-.3.5h-.4v.3l.1.4h-.3l-.7-.4.8 1.2.2.6h-.4l-.7-.4-.7-.5-.3-.7-.5-.7-.9-.4-1.4.1-.4.4.3.5.6.3-.3.4-.6.3h-.6l-.4-.6-.4.3h-.6l-.2.3-.1.4-.9-.7-.3-.5-.4.1v.3l.7.1.5.6-.3.2-.9-.2.1.5.5.2-.4 1-.4.2-.2-.8.2-.4-.3-3.1-.6-.8-.6-.5-.8-.4h-.5l-.6.1-.4.2.3.5-.4.2-.4-1-.5.2-.5.2v-.8l-1-.2.1 1.6.7.8-.7.3.6.5-.7.7-.3-.6-.4.7-.5.3v.6l-.8 1.2v1.4l.3.5.6.6-.6.3-.4.5-1.2.7.7.8.4.8.7.1.6.5-.4.4-.7-.5-.7-.2-.4.2-.5-.3-.1.5.8.3-.1.3-.5-.2-.2.3.5.6.8.1.4.3h-1.6l-.4-.8-.1-.6-.5-.8-.7-.3v.3l.5.2.3.5.1.6-.3.4.1.8.6.4.5.5.1.7.2.7.5.8.8-.1-.2.5.2.7.6.7-.2.7v.7l-.5 1M28.5 35l-1.1 1.1-2 2-.9 1h.1l.5-.4.3-.5.3-.1-.4.4-.4.5-.1.3h.2l-.1.4-.4.5-.2.5-.3.6-.1.4.4-.4.3-.2.5-.5v.3l.3-.2.3-.1.4-.7.4-.7.1-.5-.1-.3.4-.6.3-.5.4-.6.2-.6.3-.5zM93.3 175.1l.7-.2.7-.1.5-.3.6-.1h1l.5-.2h2.3l.7-.1H102.7l.7-.1H105.1l.7.1 1-.2.4-.2.9-.1.8-.2.9-.2.8-.2.4-.1.8-.1.1-.3.2-.2.5-.1.2.1.4.2.5.1.6-.1v.3l.5-.3.4-.2.1-.2.2-.2.8-.3.5-.3.9-.3.6-.2.8-.1.6-.2h.6l.3-.2.4-.1.1.2.5-.2.1-.4.3-.4.7-.2.5-.3.8-.2.8-.1.2.1h.6l-.2.1-.4.2h1.1v.1l.8-.3.4.1.4-.1.6-.2.6-.1.6-.1.6-.1.4-.1.5-.3-.2.4-.1.2v.2l-.5.3-.2.2-.3.3.1.2.5-.2-.1-.1.8-.4.7-.3.4-.1h.3l.5-.4.7-.3.4-.2.6-.4.4-.3.8-.4.7-.3.7-.5.6-.3.7-.4.7-.3.7-.3.3-.1.4-.2.6-.3.6-.3.3-.1.4-.2.5-.2.3-.1.4-.3h.2l.4-.3.3-.1.4-.2.2-.1.6-.5.6-.4.4-.2h.3l.2-.1h.2l.3-.1h.1l.4-.3.2-.1.3-.3.3-.3.4-.3.4-.3.4-.2h.1v.1l.2-.1.1-.1.4-.1.4-.3.4-.4.5-.4v.1l.3-.2.3-.4.2-.1.5-.4.1-.1-.2.2.1-.1v.1l.3-.3.5-.5.4-.4.3-.2.3-.4-1.4 1.4-3.1 2.7-2.9 2.4-2.8 2.1-2.7 1.8-2.6 1.7-2.5 1.5-2.4 1.3-2.3 1.2-2.2 1-2.1 1-2.1.8-1.9.8-1.9.6-1.8.7-1.8.5-1.7.5-1.6.4-1.6.5-1.6.3-1.6.3-1.4.3-1.5.3-1.4.2-1.4.2-1.4.2-1.4.1-1.3.2-1.3.1h-1.3l-1.3.1-1.4.1h-5.1l-1.3-.1-1.3-.1h-1.3l-1.4-.1-1.3-.2-1.4-.1-1.3-.2-1.4-.2-1.5-.2-1.4-.3-1.5-.3-1.5-.3-1.6-.3-1.6-.5-1.6-.4-1.8-.5-1.7-.5-1.8-.7-1.9-.6-2-.8-2-.8-2.1-1-2.2-1-2.3-1.2-2.4-1.3-2.5-1.5-.9-.5-.6-.4-.7-.5-.2-.1.6.3.7.5.8.5.7.4-.6-.3-.5-.3-.6-.4.4.2.5.3.2.2.8.5.4.2.3.1-.4-.2.6.3.6.3.7.4-.1-.1-1.1-.6-.1-.1-.6-.4-.2-.1.6.3h.1l-.6-.4-.3-.1-.9-.5.3.1.3.2.5.2.8.5-.1-.1.5.4.4.2.4.2-.2-.2-.4-.2-.7-.4-.7-.5-.7-.4-.7-.4h.2l.8.5.3.1.7.4.3.2.8.4.7.4.8.4.7.3.6.2.8.4h.3l.4.2.8.3.8.3.6.3-.4-.3-.1-.2.8.3.8.4.5.2.2.3.6.1.5.2h.6l.5.2.3-.1-.2-.2-.3-.3-.5-.3-.3-.4-.6-.4-.5-.4-.3-.3.5.1.1-.1-.5-.3.1-.2-.3-.2-.5-.3-.2-.2H56l-.3-.1-.3-.3.1-.2h.2l.4.3h.2l.5.3-.2-.3h.3l-.4-.3.2-.2.4-.1-.2-.3.5.2v-.2h.4v-.2l.1-.1H58.8l.4-.1.4.1.4.2h-.7l.5.1.2.4-.5-.1-.4-.3.1.3-.5-.2-.2.1-.3.1-.2.2.1.2.1.2v.3l-.5-.3-.2.1.4.3-.5-.1-.1.2.2.3.5.2-.1.2.5.3.5.1.7.4.5.4.4.4.5.3.2.2.4.2.4.3-.2.2.6.3.2.2.7.3.1.2-.5-.1.4.3.6.3-.2.2.3.2-.5-.1.4.3v.2h-.3l-.3.1 1.1.4.9.2 1 .2 1.1.3.9.4 1.3.3 1 .4 1.2.3.9.2 1.5.3 1.3.3.9.1.7-.1.3-.2h.6l.6-.1.6-.1h.6l.5-.2.3-.1.9-.2v-.2l.5-.2.8-.1.6-.1.7-.2.7-.1h1.4l.5-.1.5-.2.1-.2-.5-.1-.1-.3h.3l.3.2.3-.2.3-.1.5.1.2.2.1.2.6-.1-.2-.1.2-.2-.2-.1.4-.1h.6v.2l-.1.1.8.1.9-.1-.1-.3-.2-.1.5-.1.5.1.3.1-.3.2.5.1z"/><g><path class="st2" d="M38.2 23.3c-.1.1-.2.2-.2.3.1-.1.1-.2.2-.3zM62.8 9.6l.1-.1h-.1zM62.8 9.5l.2-.2c-.3.2-.3.2-.2.2zM36.8 25.7c-.2.2-.3.4-.5.6l.5-.6zM39.3 24.4s.1 0 .2-.1c-.1 0-.1 0-.2.1zM20.4 41.8v-.1.1zM19.5 43.6c-.1.1-.2.3-.2.4.1 0 .2-.3.2-.4zM20.1 43.1l-.2.3c.1-.1.2-.2.2-.3zM15.2 55.1l.1.1c0-.1 0-.1-.1-.1zM20.5 41.4c0 .1-.1.2-.1.3.1-.2.3-.4.1-.3zM38.2 23.2s0 .1 0 0zM35.4 26.9c.1-.2.1-.1 0 0zM73 6.4l.8-.2c-.7 0-.8.1-.8.2z"/><path class="st2" d="M25 36.3c.5.1-.6.8-.3 1 .3-.5.5-.8.8-.9-.1.5-.7.8-.6 1.2l.4-.7c.5-.3.2.4.5.1 0-.8 1.6-1.6 2-2.2v.2l.9-.7v-.1c.5-.2 1.2-.7 1.8-1.4 0-.5 2-2.2 2.1-2.7-.2.3-.5.6-.9.9l-.2-.3c.6-.6.3.2.7-.6-.4-.2-.9.9-1.3 1.3.1-.2.2-.5.5-.8-.9.9-1.8 1.6-2.1 2.6-.3.2-.3-.1-.2-.3-.4.8-.6.3-1 1.1-.1-.5 1.1-1.5 1.5-2.3 1-.6 1.9-1.9 2.8-2.9.3.2-.2 1 .3.8 1-.7.8-1 1.2-1.6.7-.5.4.3 1.5-.6l-.5.7c.9-.2.5-.7 1-1-.2.1-.3 0-.8.5-.2-.1.2-.5.4-.7l-.2.1c.1-.4 0-.6.8-1.1-.3.6.7-.3.9-.4l-.1.2c.4-.5 1-.9 1.3-1.2v.1c.3-.4.3-.8.9-1.2 0 .1-.4 1 .2.4 0 .2-.6.8-1.2 1.2.6-.4 1.1-.4.4.2.3 0 .6-.6 1-.8-.1 0 0-.2-.1-.2.2.2 1.4-1 1.2-1.2l-.6.7c-.2-.2.5-1 .2-.9.6.1 1.7-1.6 2.3-1.5h-.4c1.5-.9 2.5-2.2 3.9-3.3-.5.5-.2.9-1.3 1.4 1.5-.9.7.1 1.2 0 1.2-.6.3-.7.6-1.1l-.7.6c.7-1.1 3-1.7 4.4-2.9.2.1-.3.3-.5.4.9-.2.7-.4 1-.8.8-.4 1.7-.8 1.4-.2.9-.4-.2-.1.2-.5h.2l.7-.8c.8-.3 1.7-.5 2.2-.4 1.7-.9.3-1 1.5-1.7.8-.2 0 .3 0 .4l1.1-.5c-.2.5-1.2.8-1 1.1.7-.8 1.2-.7 2.3-1.5h-.1c.4-.5 1.8-.9 2.6-1.2-.2.3-1.1.6-1.6.9.9-.2 2.9-1.2 3.5-1.8.5-.1 1.6-.3 1 .1 1.7-.5.5-.8 2.1-1.2v.3c1.8-.1 3.1-1.4 4.8-1.4v-.4c.4.1 1.1 0 1.3.1l-.8.3c.8.1.7-.5 1.6-.5 0-.1-.8-.2-.8-.3-3.4 1-6.9 1.6-10.1 3.1.1 0 .3 0 .2.1-.4.1-1 .4-1 .2l.1-.1c-.8.4-1.8.3-2.3.5-.2.4-1.8.7-1.3.9H58c-.1.2.1.4-.3.6-.6.2-.7.1-.3-.2-2.3.8-4.9 2.2-7 3.5l.5-.5c-.6.2-1.7 1.4-1.5.7-1 .8-2.9 1.6-2.7 2.1-1 0-2.6 1.4-4 2.5.5.2-1.1.9-1.3 1.4-.4-.1.9-1.1.8-1.3-1.1 1.4-4.1 2.6-4.2 3.8-.2.1-.2.1-.2 0-.3.2-.7.4-1 .6-.1.2.6-.2 0 .4-.5.4-.4 0-.7 0-.8.9-2.2 2.3-2.1 2.7-.3.2-.8.3-.5 0-1.2 1.5-1.4 1.2-2.7 2.7.5-.5 0-.5.8-1.1-.9.2-2.1 2.2-3.3 3.2l-.2.7c-.6.7-.9.6-.5 0-1.2 1.1-1.6 1.9-2.4 2.8-.1 0-.1-.1.1-.2l-1.1 1.4c0 .2-.3.8-.1.8.1-.4.2-.8.9-1.4zM24.2 37.6z"/><path class="st2" d="M36.2 26.9c-.2.1-.3.1-.4.2.1 0 .2-.1.4-.2zM15.6 52c.5 0 .4-1 .9-1.6-.3.6.1.6.3.6-.1-1.1.6-.9 1.4-2.4.2.1-.2.8 0 1 .3-.9 1-2.1.8-2.5.8-1.3 1.5-2.2 2-3-.5 1 .2.4 0 1.2.3-1.2 1.3-3.6 1.9-5.2.4.1.5 0 .7.4 1.3-1.3 0-.7 1.2-2l-.8.5c.4-.7.2-1 .1-1.4l-1.2 1.7c-.2-.2.6-1.2.8-1.6.1-.7-.9.8-.9.4 0 .4-.6 1-.8 1.5h-.2c-.7.7-.7 1.4-1.3 2.1h-.1c0 .4-.1.7-.3 1.2l.2-.4c-.1.8-1 2.5 0 1.7l-1.2 1.7c-.2-.4-.5-1.1.2-2.1l-.1-.2c-.7.7-1.2 2.4-.6 2 .3 1.3-1.7 2.8-2.1 4.4-.3 0 .1-.8.1-1.3.2-.4.4-.7.6-.7.9-1.8-.9 0 .3-2 .7-.9-.4 1.4.5 0v-1.4c-.5.9-.9 1.7-1.3 2.5-1.9 4.2-3.6 7-3.6 7-2.8 6.2-4.9 12.6-6.2 19.3-.3 2.1-.5 2.8 0 3.8.2-.4.4-1.7.5-1.2-.2-.3-.2-1.1 0-2.1.3-.1-.1 1 0 .7l.1-.2c.1.1.1.3.1.7.6-1.1 1-3.4.8-4.3.5-.9.2.8.3 1.3 1-3.3 1.6-5.6 2.8-8.9-.4-.2-.1-.4-.3-1l.3-.2c-.1.1-.2-.5-.6.2 1-1.8.3-2.5.7-3.9l.2.2c.4-1.1.5-1.4.8-2.4 1.1-1.5-.6 1.5.1 1.3l.3-.4c.1.4.3.8.2 1.4.4-1.8 1.1-2.3 1.7-4.1.1.3-.4 2-.6 2.4.3-.6.6-1.7.8-1.7l-.1-.2c.5-1 .2.3.5 0 1.2-2.4-.8-.7.1-2.8zM32 30c-.3.2-.4.4-.6.6l.6-.6zM28.7 34.3v.2c.1-.1.1-.2 0-.2zM28.7 35c-.2 0 0-.3 0-.5-.1.3-.7.9 0 .5zM106.5 6.5c.2-.1.9-.1.7-.2h-1l.3.2zM104.5 5.9l-1-.2-.8.3c1.1.1.7-.3 1.8-.1zM101.6 5.3l.2-.1c-.1.1-.2.1-.2.1zM101.6 5.5l-.4.3 1.3-.1-.5-.2c0-.1-.3-.2-.4-.2l-.5.2c.1 0 .4-.1.5 0zM100.5 5.4s0 .1 0 0c0 .1 0 0 0 0zM97.9 4.7c.3.1-.3.3-.4.4 1 .2 1.1-.3 2-.1-1.4.2.5.2.9.4-.2-.3-.7-.6-1.8-.7l-.1.2c-.5 0-.2-.1-.6-.2zM92.5 5l.8-.3c.1.1 1.4.1 1.4.4.5 0 .5-.2.9-.2.4.2.6.3 1.1.1-1.9-.3-1.4-.3-3.1-.4 0-.1.2-.1.5 0L93 4.4c-.1.4-1.5.4-.5.6zM90.9 4.8c.9 0 1.4-.3.9-.5l-1.9.3c.6 0 1.3 0 1 .2zM89.6 4.9c-.4-.1-1-.4-1.5-.1 1-.1.5.4 1.5.1zM83.2 5.1H85c.4.4-.8.2-1.3.4 1.5-.1 1-.2 2.1-.5.4 0 1.1-.3 1.6-.4-2.3.6-2.6-.4-4.2.5zM86.7 5.2l.2-.2-.8.2zM79.1 5.3c-1.2-.3-2 .6-3.2.7.1-.1 0-.1.3-.2l-1 .3-.1-.1c.1.2-.9.6-1.3.9 1.1.1.4-.5 1.4-.3-.2.1-.3.3-.5.4.6-.3.7-.5.9-.7.7-.2.5 0 .6.1.7-.3.6-.7 1.8-.8.8.1-.4.4.9.1-.7-.3 1.3-.1 1.7-.5.9-.1 1.6.1 1.4.3-.1-.3.7-.7 1.4-.9l-1.5.5-.6-.3c-.8.3-1.5.4-2.3.5h.1z"/><path class="st2" d="M74.7 7c-.1 0-.2.1-.3.1.2.1.2 0 .3-.1zM82.3 5.7l-.4.1.3.1zM74 7.5c.2 0 .2-.2 0-.1l-.3.3.3-.2zM73.1 7.5l-.6-.1-.3.2zM53 14.8c.7-.2.5-.4.5-.6-1 .4.1.2-.5.6zM41.8 22.3c.7-.3 1.1-.9 1.8-1.4-.7.3-1.4.9-1.8 1.4zM37.9 26.5c.1-.2.3-.4-.1-.2l.3-.8c-1 .6-.4.9-.2 1zM33.2 30.9l.6-.9-.4.4c.1-.3.1-.5.3-.9-.5.6-.8 1.3-.5 1.4zM34.4 28.8l-.3.3c.1-.1.2-.1.3-.3zM33.8 29.4l-.1.1c.1-.1.2-.3.4-.4-.1 0-.2.1-.3.3zM32.5 31.3l-1.2 1.3.5-.4c-.1-.3.7-.5.7-.9zM26 38.2h-.3c-.8.9-1.1 2.4-1.9 2.7.4-.3-.3 1 .6-.1 0-.7 1-2 1.6-2.6zM23.1 41.3c0-.2-.2 0-.3.1-.3.3-.4.8-.2.6-.2-.5.4-.2.5-.7zM20.1 45.7c.2-.3.4-.7.1-.3-.5.9-.1.8-.2 1.4.6-.7.6-1.5.1-1.1zM14.3 51.7c.3 0 .6-.7.6-.9-.1.2-.4.6-.6.9zM16 52.8l.2-.2-.2-.5zM13.7 58.4l-.1.8.4-1.1zM13.2 59.4l-.4.9.2-.3c.3-.4 0-.3.2-.6zM12.1 62.2c0-.1.1-.2.2-.2l.2-.9-.4 1.1zM6.5 77.5c-.2-.3-.2.7-.3 1 0 0 .4-.5.3-1z"/></g><path fill="none" stroke="#717073" stroke-miterlimit="10" d="M132.9 60.7l-4 40.5"/></g></svg>